{"title":"Ride.Along.2.2016.BRRip.720p.x264.AAC-PRiSTiNE [P2PDL]","uid":14310311,"size":639776819,"categoryP":"video","categoryS":"hd___movies","magnet":"?xt=urn:btih:41569c6e614dd7cd70f412650dfcf01812179b21&amp;dn=Ride.Along.2.2016.BRRip.720p.x264.AAC-PRiSTiNE+%5BP2PDL%5D&amp;tr=udp%3A%2F%2Ftracker.leechers-paradise.org%3A6969&amp;tr=udp%3A%2F%2Fzer0day.ch%3A1337&amp;tr=udp%3A%2F%2Fopen.demonii.com%3A1337&amp;tr=udp%3A%2F%2Ftracker.coppersurfer.tk%3A6969&amp;tr=udp%3A%2F%2Fexodus.desync.com%3A6969","seeders":0,"leechers":2,"uploader":"VYTOP2PDL","files":7,"time":1460536012,"description":"____    ____ ____    ____ .___________.  ______   \r\n     /   /      /   / |           | /  __    \r\n    /   /      /   /  `---|  |----`|  |  |  | \r\n        /     _    _/       |  |     |  |  |  | \r\n       /        |  |         |  |     |  `--'  | \r\n    __/         |__|         |__|      ______/  \r\n                                                  \r\nPresenting Small Encodes with quality for years!\r\n                                                                                                   \r\n                                                                                                   \r\n\r\n\r\nRide.Along.2.2016.BRRip.720p.x264.AAC-PRiSTiNE\r\n\r\n\r\nGenre: Action, Comedy  \nhttp://www.imdb.com/title/tt2869728/\r\n\r\n\r\nFormat                                   : MPEG-4\r\nFile size                                : 597 MiB\r\nDuration                                 : 1h 41mn\r\nOverall bit rate                         : 822 Kbps\r\n\r\nVideo\r\nFormat                                   : AVC\r\nBit rate                                 : 739 Kbps\r\nWidth                                    : 1 280 pixels\r\nHeight                                   : 536 pixels\r\nDisplay aspect ratio                     : 2.40:1\r\nFrame rate mode                          : Constant\r\nFrame rate                               : 23.976 fps\r\nBit depth                                : 8 bits\r\nStream size                              : 536 MiB (90%)\r\nWriting library                          : x264\r\n\r\nAudio\r\nFormat                                   : AAC\r\nBit rate mode                            : Variable\r\nBit rate                                 : 80.0 Kbps\r\nChannel(s)                               : 2 channels\r\nChannel positions                        : Front: L R\r\nSampling rate                            : 48.0 KHz\r\nStream size                              : 58.1 MiB (10%)\r\nLanguage                                 : English\r\n\r\nSubtitle                                 : Yes (English)\r\n\r\nScreen Shot: (Click links to view)\r\n \nhttps://ititli.com/X4h \nhttps://ititli.com/X4s \nhttps://ititli.com/X4Y \nhttps://ititli.com/X44 \nhttps://ititli.com/X4K \nhttps://ititli.com/X4V \nhttps://ititli.com/X4t \nhttps://ititli.com/X4L \nhttps://ititli.com/X4d \nhttps://ititli.com/X40 \nhttps://ititli.com/X4A \nhttps://ititli.com/X4l\r\n\r\n----------------------------------------------------------------------------------------------------\r\n\r\n\r\nEncoder Notes: Looking For Early Access To Anything You Can Provide WEBDL, DVDScr, DVDR, BluRay,\r\nDirect Audio, Music Releases and Seedboxes. If You Got anything to offer please contact us.\r\n\r\nSupport us by donating BC - 1FgwdzPsd1y25Gea8wP1qni35uGCtmkRCD\r\n\r\nFind us and join us!","torrent":{"xt":"urn:btih:41569c6e614dd7cd70f412650dfcf01812179b21","amp;dn":"Ride.Along.2.2016.BRRip.720p.x264.AAC-PRiSTiNE+%5BP2PDL%5D","amp;tr":["udp%3A%2F%2Ftracker.leechers-paradise.org%3A6969","udp%3A%2F%2Fzer0day.ch%3A1337","udp%3A%2F%2Fopen.demonii.com%3A1337","udp%3A%2F%2Ftracker.coppersurfer.tk%3A6969","udp%3A%2F%2Fexodus.desync.com%3A6969"],"infoHash":"41569c6e614dd7cd70f412650dfcf01812179b21","infoHashBuffer":{"type":"Buffer","data":[65,86,156,110,97,77,215,205,112,244,18,101,13,252,240,24,18,23,155,33]},"announce":[],"urlList":[]}}